<svg xmlns="http://www.w3.org/2000/svg" viewBox="0 0 100 100">
  <!-- 下层面包 -->
  <path d="M15 65 C 15 80, 85 80, 85 65 L 85 60 L 15 60 Z" fill="#D97706"/>
  <!-- 蔬菜/生菜 -->
  <path d="M10 55 Q 15 50 20 55 T 30 55 T 40 55 T 50 55 T 60 55 T 70 55 T 80 55 T 90 55 L 90 60 L 10 60 Z" fill="#10B981"/>
  <!-- 牛肉饼 -->
  <rect x="12" y="48" width="76" height="10" rx="4" fill="#92400E"/>
  <!-- 芝士 -->
  <path d="M12 45 L 88 45 L 88 52 L 80 58 L 12 45 Z" fill="#FBBF24"/>
  <!-- 上层面包 -->
  <path d="M15 45 Q 15 10 50 10 T 85 45 Z" fill="#D97706"/>
  <!-- 芝麻点点 -->
  <circle cx="35" cy="22" r="1.5" fill="#FEF3C7"/>
  <circle cx="50" cy="18" r="1.5" fill="#FEF3C7"/>
  <circle cx="65" cy="25" r="1.5" fill="#FEF3C7"/>
  <circle cx="45" cy="30" r="1.5" fill="#FEF3C7"/>
  <circle cx="58" cy="32" r="1.5" fill="#FEF3C7"/>
</svg>