<?xml version="1.0" standalone="no"?><!DOCTYPE svg PUBLIC "-//W3C//DTD SVG 1.1//EN" "http://www.w3.org/Graphics/SVG/1.1/DTD/svg11.dtd"><svg t="1768533201851" class="icon" viewBox="0 0 1024 1024" version="1.1" xmlns="http://www.w3.org/2000/svg" p-id="992" xmlns:xlink="http://www.w3.org/1999/xlink" width="192" height="192"><path d="M461.63 130.42h72.35L665.4 340.47l-90.75 458.32-93.87 12.73s-152.82-443.6-160.99-467.04c39-59.28 141.84-214.06 141.84-214.06z m0 0" fill="#6C8EFF" p-id="993"></path><path d="M461.63 130.42h72.35L665.4 340.47s-337.38 27.46-345.53 3.99c38.92-59.26 141.76-214.04 141.76-214.04z m0 0" fill="#94B9FF" p-id="994"></path><path d="M422.74 369.13l57.78 340.45-34.56 1.06L319.8 344.48l102.94 24.65z m0 0" fill="#84ADFF" p-id="995"></path><path d="M273.38 551.36l-69.21 148.79L366.49 856.1h57.27l57.3-25.45-58.31-256.46-149.37-22.83z m418.8 148.79l117.25-15.51 73.72 75.97-61.4 50.92-129.57-31.83v-79.55z m0 0" fill="#6C8EFF" p-id="996"></path><path d="M553.73 360.39l111.59-19.9-92.5 471.05-39.02-7.2 19.93-443.95z m0 0" fill="#485FFF" p-id="997"></path><path d="M533.8 844.96l35.22 22.84 37.41 4.74 50.49-18.75 98.28-219.16-47.62-156.2-169.1 72.92-4.68 293.61z m0 0" fill="#6C8EFF" p-id="998"></path><path d="M692.18 596.7l63.02 37.94-98.29 219.16-50.49 18.75 85.76-275.85z m0 0" fill="#485FFF" p-id="999"></path><path d="M787.66 761.42l95.49-0.8-61.4 50.92-129.57-25.46 6.52-25.47 88.96 0.81z m0 0" fill="#4D6CFF" p-id="1000"></path><path d="M422.74 574.18l115.58 129.55-4.52 126.91h-52.74l-58.32-256.46z m0 0" fill="#475AFD" p-id="1001"></path><path d="M204.16 700.15h94.14L410.5 856.1h-44.01L204.16 700.15z m0 0" fill="#4D6CFF" p-id="1002"></path><path d="M447.81 150.11l18.2 12.74-43.26 206.29-102.95-24.66 128.01-194.37z m0 0" fill="#A7DCFF" p-id="1003"></path><path d="M538.47 551.36l61.09 31.02-30.55 285.42-35.22-22.84 4.68-293.6z m0 0" fill="#88B1FF" p-id="1004"></path><path d="M422.74 574.18l-29.85 81.41L444 847.11l37.06-16.46-58.32-256.47z m0 0" fill="#85A9FF" p-id="1005"></path><path d="M273.38 551.36L392.9 655.59l-94.59 44.56-24.93-148.79z m0 0" fill="#A7DCFF" p-id="1006"></path><path d="M546.28 150.11l-23.83 16.91 31.28 193.36 111.59-19.9-119.04-190.37z m0 0" fill="#647EFF" p-id="1007"></path><path d="M466 162.85l56.45 4.18 31.28 193.36-130.98 8.75L466 162.85z m0 0" fill="#83ACFF" p-id="1008"></path><path d="M707.57 478.44l-169.1 72.92 61.09 31.02 108.01-103.94z m0 0" fill="#A7DCFF" p-id="1009"></path><path d="M692.18 596.7l63.01 37.94-47.62-156.2" fill="#637FFF" p-id="1010"></path><path d="M707.57 478.44L692.18 596.7l-92.62-14.32 108.01-103.94z m0 0" fill="#85A8FF" p-id="1011"></path><path d="M223.77 781.78l-53.15 23.61 36.32 29.07 95.19-7.31-78.36-45.37z m0 0" fill="#6C8EFF" p-id="1012"></path><path d="M212.8 843.72l-42.18-38.32 131.51 21.75" fill="#4D6CFF" p-id="1013"></path><path d="M223.77 781.78l16.53 35.13-69.67-11.51 53.14-23.62z m0 0" fill="#85A9FF" p-id="1014"></path></svg>